<svg width="1584" height="396" viewBox="0 0 1584 396" fill="none" xmlns="http://www.w3.org/2000/svg">
<rect width="1584" height="396" fill="#F5F5F5"/>
<g id="Awesome banner" clip-path="url(#clip0_0_1)">
<rect width="1584" height="396" fill="url(#paint0_linear_0_1)"/>
<ellipse id="Ellipse 2" cx="323" cy="64" rx="285" ry="288" fill="url(#paint1_linear_0_1)" fill-opacity="0.1"/>
<g id="copyright">
<path d="M75.95 334.52L72.30 334.52L72.30 311.16L77.20 311.16L83.70 330.04Q83.60 329.02 83.50 327.62Q83.41 326.23 83.33 324.79Q83.25 323.35 83.25 322.23L83.25 311.16L86.90 311.16L86.90 334.52L82 334.52L75.57 315.64Q75.63 316.57 75.73 317.88Q75.82 319.19 75.89 320.57Q75.95 321.94 75.95 323.10L75.95 334.52M98.80 334.84Q96.46 334.84 94.67 333.96Q92.88 333.08 91.89 331.53Q90.90 329.98 90.90 327.93Q90.90 325.78 92.13 324.18Q93.36 322.58 95.34 322.17L95.34 322.10Q93.65 321.75 92.61 320.38Q91.57 319 91.57 317.11Q91.57 315.26 92.48 313.85Q93.39 312.44 95.02 311.64Q96.66 310.84 98.80 310.84Q100.94 310.84 102.59 311.64Q104.24 312.44 105.15 313.85Q106.06 315.26 106.06 317.11Q106.06 319 105.01 320.38Q103.95 321.75 102.26 322.10L102.26 322.17Q104.24 322.58 105.47 324.18Q106.70 325.78 106.70 327.93Q106.70 329.98 105.71 331.53Q104.72 333.08 102.93 333.96Q101.14 334.84 98.80 334.84M98.80 320.73Q100.30 320.73 101.23 319.82Q102.16 318.90 102.16 317.46Q102.16 315.99 101.23 315.08Q100.30 314.17 98.80 314.17Q97.30 314.17 96.37 315.08Q95.44 315.99 95.44 317.46Q95.44 318.90 96.37 319.82Q97.30 320.73 98.80 320.73M98.80 331.45Q100.56 331.45 101.68 330.42Q102.80 329.40 102.80 327.74Q102.80 326.04 101.68 325Q100.56 323.96 98.80 323.96Q97.04 323.96 95.92 325Q94.80 326.04 94.80 327.74Q94.80 329.40 95.92 330.42Q97.04 331.45 98.80 331.45M114.35 334.52L110.70 334.52L110.70 311.16L115.60 311.16L122.10 330.04Q122 329.02 121.90 327.62Q121.81 326.23 121.73 324.79Q121.65 323.35 121.65 322.23L121.65 311.16L125.30 311.16L125.30 334.52L120.40 334.52L113.97 315.64Q114.03 316.57 114.13 317.88Q114.22 319.19 114.29 320.57Q114.35 321.94 114.35 323.10" fill="white" fill-opacity="0.9"/>
<path d="M161.48 325.24L151.24 325.24L151.24 322.68L161.48 322.68" fill="white" fill-opacity="0.9"/>
<path d="M195.02 334.84Q191.82 334.84 189.96 333.05Q188.11 331.26 188.11 328.12L188.11 317.56Q188.11 314.42 189.96 312.63Q191.82 310.84 195.02 310.84Q198.15 310.84 200.01 312.65Q201.87 314.46 201.87 317.56L198.99 317.56Q198.99 315.58 197.95 314.50Q196.91 313.43 195.02 313.43Q193.13 313.43 192.06 314.50Q190.99 315.58 190.99 317.56L190.99 328.12Q190.99 330.10 192.06 331.18Q193.13 332.25 195.02 332.25Q196.91 332.25 197.95 331.18Q198.99 330.10 198.99 328.12L201.87 328.12Q201.87 331.22 200.01 333.03Q198.15 334.84 195.02 334.84" fill="white" fill-opacity="0.9"/>
<path d="M213.96 334.84Q210.83 334.84 209 333.02Q207.18 331.19 207.18 327.80L207.18 317.88Q207.18 314.49 209 312.66Q210.83 310.84 213.96 310.84Q217.10 310.84 218.92 312.66Q220.75 314.49 220.75 317.85L220.75 327.80Q220.75 331.19 218.92 333.02Q217.10 334.84 213.96 334.84M213.96 332.25Q215.85 332.25 216.86 331.18Q217.87 330.10 217.87 328.12L217.87 317.56Q217.87 315.58 216.86 314.50Q215.85 313.43 213.96 313.43Q212.11 313.43 211.08 314.50Q210.06 315.58 210.06 317.56L210.06 328.12Q210.06 330.10 211.08 331.18Q212.11 332.25 213.96 332.25" fill="white" fill-opacity="0.9"/>
<path d="M228.65 334.52L225.87 334.52L225.87 311.16L230.12 311.16L233.10 321.27L236.20 311.16L240.46 311.16L240.46 334.52L237.67 334.52L237.67 323.48Q237.67 321.91 237.72 319.88Q237.77 317.85 237.87 315.77Q237.96 313.69 238.09 312.02L234.31 324.09L231.82 324.09L228.20 312.31Q228.46 314.68 228.55 317.50Q228.65 320.31 228.65 323.48" fill="white" fill-opacity="0.9"/>
<path d="M247.85 334.52L245.07 334.52L245.07 311.16L249.32 311.16L252.30 321.27L255.40 311.16L259.66 311.16L259.66 334.52L256.87 334.52L256.87 323.48Q256.87 321.91 256.92 319.88Q256.97 317.85 257.07 315.77Q257.16 313.69 257.29 312.02L253.51 324.09L251.02 324.09L247.40 312.31Q247.66 314.68 247.75 317.50Q247.85 320.31 247.85 323.48" fill="white" fill-opacity="0.9"/>
<path d="M271.56 334.84Q268.30 334.84 266.57 333.03Q264.84 331.22 264.84 328.12L264.84 311.16L267.72 311.16L267.72 328.12Q267.72 330.04 268.67 331.16Q269.61 332.28 271.56 332.28Q273.48 332.28 274.44 331.16Q275.40 330.04 275.40 328.12L275.40 311.16L278.28 311.16L278.28 328.12Q278.28 331.26 276.57 333.05Q274.86 334.84 271.56 334.84" fill="white" fill-opacity="0.9"/>
<path d="M286.83 334.52L284.04 334.52L284.04 311.16L287.88 311.16L295.02 331.16Q294.95 330.36 294.87 329.19Q294.79 328.02 294.75 326.73Q294.70 325.43 294.70 324.28L294.70 311.16L297.48 311.16L297.48 334.52L293.64 334.52L286.54 314.52Q286.60 315.29 286.67 316.46Q286.73 317.62 286.78 318.92Q286.83 320.22 286.83 321.40" fill="white" fill-opacity="0.9"/>
<path d="M316.20 334.52L303.72 334.52L303.72 331.90L308.49 331.90L308.49 313.78L303.72 313.78L303.72 311.16L316.20 311.16L316.20 313.78L311.43 313.78L311.43 331.90L316.20 331.90" fill="white" fill-opacity="0.9"/>
<path d="M330.60 334.52L327.72 334.52L327.72 313.78L321.32 313.78L321.32 311.16L337 311.16L337 313.78L330.60 313.78" fill="white" fill-opacity="0.9"/>
<path d="M349.80 334.52L346.92 334.52L346.92 325.78L339.88 311.16L342.95 311.16L347.50 320.76Q347.88 321.56 348.11 322.12Q348.33 322.68 348.39 322.94Q348.46 322.68 348.70 322.12Q348.94 321.56 349.32 320.76L353.87 311.16L356.84 311.16L349.80 325.78" fill="white" fill-opacity="0.9"/>
<path d="M382.83 334.52L380.04 334.52L380.04 311.16L383.88 311.16L391.02 331.16Q390.95 330.36 390.87 329.19Q390.79 328.02 390.75 326.73Q390.70 325.43 390.70 324.28L390.70 311.16L393.48 311.16L393.48 334.52L389.64 334.52L382.54 314.52Q382.60 315.29 382.67 316.46Q382.73 317.62 382.78 318.92Q382.83 320.22 382.83 321.40" fill="white" fill-opacity="0.9"/>
<path d="M405.96 334.84Q402.83 334.84 401 333.02Q399.18 331.19 399.18 327.80L399.18 317.88Q399.18 314.49 401 312.66Q402.83 310.84 405.96 310.84Q409.10 310.84 410.92 312.66Q412.75 314.49 412.75 317.85L412.75 327.80Q412.75 331.19 410.92 333.02Q409.10 334.84 405.96 334.84M405.96 332.25Q407.85 332.25 408.86 331.18Q409.87 330.10 409.87 328.12L409.87 317.56Q409.87 315.58 408.86 314.50Q407.85 313.43 405.96 313.43Q404.11 313.43 403.08 314.50Q402.06 315.58 402.06 317.56L402.06 328.12Q402.06 330.10 403.08 331.18Q404.11 332.25 405.96 332.25" fill="white" fill-opacity="0.9"/>
<path d="M424.55 334.52L418.51 334.52L418.51 311.16L424.55 311.16Q426.83 311.16 428.47 312.02Q430.12 312.89 431.03 314.46Q431.95 316.02 431.95 318.17L431.95 327.48Q431.95 329.62 431.03 331.21Q430.12 332.79 428.47 333.66Q426.83 334.52 424.55 334.52M421.39 313.72L421.39 331.96L424.55 331.96Q426.67 331.96 427.87 330.78Q429.07 329.59 429.07 327.48L429.07 318.17Q429.07 316.09 427.87 314.90Q426.67 313.72 424.55 313.72" fill="white" fill-opacity="0.9"/>
<path d="M451.40 334.52L437.96 334.52L437.96 311.16L451.40 311.16L451.40 313.78L440.81 313.78L440.81 321.02L450.28 321.02L450.28 323.58L440.81 323.58L440.81 331.90L451.40 331.90" fill="white" fill-opacity="0.9"/>
<path d="M463.69 334.84Q460.30 334.84 458.28 333.05Q456.27 331.26 456.27 328.12L459.15 328.12Q459.15 330.07 460.39 331.18Q461.64 332.28 463.69 332.28Q465.67 332.28 466.86 331.13Q468.04 329.98 468.04 328.12Q468.04 326.71 467.29 325.67Q466.54 324.63 465.13 324.25L461.58 323.26Q459.37 322.62 458.11 320.97Q456.84 319.32 456.84 317.08Q456.84 315.22 457.67 313.82Q458.51 312.41 460.01 311.62Q461.51 310.84 463.47 310.84Q465.45 310.84 466.97 311.62Q468.49 312.41 469.35 313.80Q470.22 315.19 470.22 317.02L467.34 317.02Q467.34 315.42 466.25 314.41Q465.16 313.40 463.47 313.40Q461.77 313.40 460.71 314.41Q459.66 315.42 459.66 317.02Q459.66 318.30 460.35 319.21Q461.03 320.12 462.28 320.47L465.93 321.50Q468.27 322.14 469.56 323.91Q470.86 325.69 470.86 328.12Q470.86 331.19 468.91 333.02Q466.95 334.84 463.69 334.84" fill="white" fill-opacity="0.9"/>
</g>
<path d="M74.37 197.64L72.23 197.64L72.23 180.12L77.63 180.12Q79.19 180.12 80.37 180.76Q81.54 181.39 82.19 182.52Q82.84 183.65 82.84 185.16Q82.84 186.94 81.93 188.21Q81.02 189.48 79.50 189.98L83.08 197.64L80.70 197.64L77.27 190.20L74.37 190.20L74.37 197.64M74.37 182.06L74.37 188.26L77.63 188.26Q78.98 188.26 79.79 187.40Q80.61 186.55 80.61 185.16Q80.61 183.74 79.79 182.90Q78.98 182.06 77.63 182.06" fill="white" fill-opacity="0.7"/>
<path d="M90.45 197.88Q88.41 197.88 87.21 196.74Q86.01 195.60 86.01 193.75Q86.01 192.53 86.56 191.62Q87.11 190.70 88.10 190.19Q89.08 189.67 90.35 189.67L94.43 189.67L94.43 188.64Q94.43 186.07 91.62 186.07Q90.38 186.07 89.61 186.53Q88.84 186.98 88.79 187.80L86.63 187.80Q86.75 186.24 88.08 185.22Q89.42 184.20 91.62 184.20Q94.02 184.20 95.31 185.35Q96.59 186.50 96.59 188.57L96.59 197.64L94.46 197.64L94.46 195.24L94.41 195.24Q94.22 196.46 93.18 197.17Q92.15 197.88 90.45 197.88M90.98 196.06Q92.56 196.06 93.50 195.29Q94.43 194.52 94.43 193.20L94.43 191.35L90.59 191.35Q89.54 191.35 88.88 191.99Q88.22 192.62 88.22 193.68Q88.22 194.78 88.95 195.42Q89.68 196.06 90.98 196.06" fill="white" fill-opacity="0.7"/>
<path d="M103.94 201.96L100.96 201.96L100.96 199.99L103.94 199.99Q105.42 199.99 106.25 199.18Q107.08 198.36 107.08 196.90L107.08 186.41L100.84 186.41L100.84 184.44L109.24 184.44L109.24 196.90Q109.24 199.22 107.80 200.59Q106.36 201.96 103.94 201.96M107.92 182.06Q107.13 182.06 106.67 181.66Q106.22 181.25 106.22 180.55Q106.22 179.83 106.67 179.41Q107.13 178.99 107.92 178.99Q108.71 178.99 109.17 179.41Q109.62 179.83 109.62 180.55Q109.62 181.25 109.17 181.66Q108.71 182.06 107.92 182.06" fill="white" fill-opacity="0.7"/>
<path d="M119.25 197.88Q117.21 197.88 116.01 196.74Q114.81 195.60 114.81 193.75Q114.81 192.53 115.36 191.62Q115.91 190.70 116.90 190.19Q117.88 189.67 119.15 189.67L123.23 189.67L123.23 188.64Q123.23 186.07 120.42 186.07Q119.18 186.07 118.41 186.53Q117.64 186.98 117.59 187.80L115.43 187.80Q115.55 186.24 116.88 185.22Q118.22 184.20 120.42 184.20Q122.82 184.20 124.11 185.35Q125.39 186.50 125.39 188.57L125.39 197.64L123.26 197.64L123.26 195.24L123.21 195.24Q123.02 196.46 121.98 197.17Q120.95 197.88 119.25 197.88M119.78 196.06Q121.36 196.06 122.30 195.29Q123.23 194.52 123.23 193.20L123.23 191.35L119.39 191.35Q118.34 191.35 117.68 191.99Q117.02 192.62 117.02 193.68Q117.02 194.78 117.75 195.42Q118.48 196.06 119.78 196.06" fill="white" fill-opacity="0.7"/>
<path d="M135.33 197.83L134.27 197.83Q132.06 197.83 130.85 196.84Q129.64 195.84 129.64 194.02L131.80 194.02Q131.80 194.93 132.45 195.44Q133.10 195.96 134.27 195.96L135.33 195.96Q136.53 195.96 137.19 195.43Q137.85 194.90 137.85 193.94Q137.85 192.24 136.29 192.02L132.64 191.50Q131.30 191.30 130.55 190.38Q129.81 189.46 129.81 187.94Q129.81 186.22 131 185.23Q132.18 184.25 134.27 184.25L135.33 184.25Q137.25 184.25 138.46 185.20Q139.67 186.14 139.77 187.68L137.58 187.68Q137.54 186.98 136.92 186.53Q136.31 186.07 135.33 186.07L134.27 186.07Q133.17 186.07 132.54 186.58Q131.92 187.08 131.92 187.94Q131.92 189.34 133.19 189.53L136.60 190.01Q139.96 190.49 139.96 193.94Q139.96 195.79 138.75 196.81Q137.54 197.83 135.33 197.83" fill="white" fill-opacity="0.7"/>
<path d="M154.36 197.64L150.52 197.64Q148.89 197.64 147.90 196.69Q146.92 195.74 146.92 194.16L146.92 186.41L143.13 186.41L143.13 184.44L146.92 184.44L146.92 180.72L149.08 180.72L149.08 184.44L154.48 184.44L154.48 186.41L149.08 186.41L149.08 194.16Q149.08 194.83 149.48 195.25Q149.87 195.67 150.52 195.67L154.36 195.67" fill="white" fill-opacity="0.7"/>
<path d="M160.77 197.64L158.61 197.64L158.61 180.12L160.77 180.12L160.77 186.96L160.79 186.96Q160.96 185.64 161.87 184.92Q162.78 184.20 164.30 184.20Q166.29 184.20 167.46 185.42Q168.64 186.65 168.64 188.76L168.64 197.64L166.48 197.64L166.48 189.12Q166.48 187.63 165.72 186.83Q164.97 186.02 163.67 186.02Q162.33 186.02 161.55 186.86Q160.77 187.70 160.77 189.24" fill="white" fill-opacity="0.7"/>
<path d="M176.85 197.88Q174.81 197.88 173.61 196.74Q172.41 195.60 172.41 193.75Q172.41 192.53 172.96 191.62Q173.51 190.70 174.50 190.19Q175.48 189.67 176.75 189.67L180.83 189.67L180.83 188.64Q180.83 186.07 178.02 186.07Q176.78 186.07 176.01 186.53Q175.24 186.98 175.19 187.80L173.03 187.80Q173.15 186.24 174.48 185.22Q175.82 184.20 178.02 184.20Q180.42 184.20 181.71 185.35Q182.99 186.50 182.99 188.57L182.99 197.64L180.86 197.64L180.86 195.24L180.81 195.24Q180.62 196.46 179.58 197.17Q178.55 197.88 176.85 197.88M177.38 196.06Q178.96 196.06 179.90 195.29Q180.83 194.52 180.83 193.20L180.83 191.35L176.99 191.35Q175.94 191.35 175.28 191.99Q174.62 192.62 174.62 193.68Q174.62 194.78 175.35 195.42Q176.08 196.06 177.38 196.06" fill="white" fill-opacity="0.7"/>
<path d="M189.57 197.64L187.41 197.64L187.41 184.44L189.57 184.44L189.57 186.96L189.59 186.96Q189.76 185.64 190.67 184.92Q191.58 184.20 193.10 184.20Q195.09 184.20 196.26 185.42Q197.44 186.65 197.44 188.76L197.44 197.64L195.28 197.64L195.28 189.14Q195.28 187.63 194.52 186.83Q193.77 186.02 192.47 186.02Q191.13 186.02 190.35 186.86Q189.57 187.70 189.57 189.24" fill="white" fill-opacity="0.7"/>
<path d="M221.56 197.64L216.23 197.64L216.23 180.12L221.20 180.12Q223.60 180.12 224.96 181.32Q226.31 182.52 226.31 184.66Q226.31 186 225.46 187.08Q224.61 188.16 223.24 188.42L223.24 188.50Q224.27 188.62 225.05 189.22Q225.83 189.82 226.28 190.74Q226.72 191.66 226.72 192.77Q226.72 195.02 225.34 196.33Q223.96 197.64 221.56 197.64M218.34 182.06L218.34 187.58L221.18 187.58Q222.57 187.58 223.37 186.84Q224.18 186.10 224.18 184.82Q224.18 183.55 223.38 182.81Q222.59 182.06 221.20 182.06L218.34 182.06M218.34 189.46L218.34 195.70L221.32 195.70Q222.83 195.70 223.71 194.89Q224.58 194.09 224.58 192.70Q224.58 191.26 223.71 190.36Q222.83 189.46 221.32 189.46" fill="white" fill-opacity="0.7"/>
<path d="M235.60 197.83Q233.22 197.83 231.82 196.44Q230.42 195.05 230.42 192.55L230.42 189.53Q230.42 187.01 231.81 185.63Q233.20 184.25 235.60 184.25QNaN 184.25 239.39 185.63Q240.78 187.01 240.78 189.53L240.78 192.55Q240.78 195.05 239.38 196.44Q237.98 197.83 235.60 197.83M235.60 195.91Q237.02 195.91 237.82 195.12Q238.62 194.33 238.62 192.79L238.62 189.29Q238.62 187.75 237.82 186.96Q237.02 186.17 235.60 186.17Q234.21 186.17 233.39 186.96Q232.58 187.75 232.58 189.29L232.58 192.79Q232.58 194.33 233.39 195.12Q234.21 195.91 235.60 195.91" fill="white" fill-opacity="0.7"/>
<path d="M248.85 197.88Q246.81 197.88 245.61 196.74Q244.41 195.60 244.41 193.75Q244.41 192.53 244.96 191.62Q245.51 190.70 246.50 190.19Q247.48 189.67 248.75 189.67L252.83 189.67L252.83 188.64Q252.83 186.07 250.02 186.07Q248.78 186.07 248.01 186.53Q247.24 186.98 247.19 187.80L245.03 187.80Q245.15 186.24 246.48 185.22Q247.82 184.20 250.02 184.20Q252.42 184.20 253.71 185.35Q254.99 186.50 254.99 188.57L254.99 197.64L252.86 197.64L252.86 195.24L252.81 195.24Q252.62 196.46 251.58 197.17Q250.55 197.88 248.85 197.88M249.38 196.06Q250.96 196.06 251.90 195.29Q252.83 194.52 252.83 193.20L252.83 191.35L248.99 191.35Q247.94 191.35 247.28 191.99Q246.62 192.62 246.62 193.68Q246.62 194.78 247.35 195.42Q248.08 196.06 249.38 196.06" fill="white" fill-opacity="0.7"/>
<path d="M262.05 197.64L259.89 197.64L259.89 184.44L262.05 184.44L262.05 186.96L262.10 186.96Q262.26 185.69 263.18 184.94Q264.09 184.20 265.62 184.20Q267.69 184.20 268.80 185.44Q269.92 186.67 269.92 188.95L269.92 190.08L267.76 190.08L267.76 188.95Q267.76 186.07 264.95 186.07Q263.54 186.07 262.79 186.89Q262.05 187.70 262.05 189.24" fill="white" fill-opacity="0.7"/>
<path d="M278.03 197.88Q276.06 197.88 274.88 196.56Q273.69 195.24 273.69 192.98L273.69 189.12Q273.69 186.84 274.86 185.52Q276.04 184.20 278.03 184.20Q279.52 184.20 280.49 184.94Q281.46 185.69 281.66 186.96L281.68 186.96L281.63 183.96L281.63 180.12L283.79 180.12L283.79 197.64L281.63 197.64L281.63 195.12L281.61 195.12Q281.44 196.42 280.48 197.15Q279.52 197.88 278.03 197.88M278.75 196.01Q280.10 196.01 280.86 195.17Q281.63 194.33 281.63 192.84L281.63 189.24Q281.63 187.75 280.86 186.91Q280.10 186.07 278.75 186.07Q277.38 186.07 276.62 186.78Q275.85 187.49 275.85 189.12L275.85 192.96Q275.85 194.57 276.62 195.29Q277.38 196.01 278.75 196.01" fill="white" fill-opacity="0.7"/>
<path d="M307.79 197.88Q305.39 197.88 304 196.54Q302.61 195.19 302.61 192.84L302.61 184.92Q302.61 182.57 304 181.22Q305.39 179.88 307.79 179.88Q310.14 179.88 311.54 181.24Q312.93 182.59 312.93 184.92L310.77 184.92Q310.77 183.43 309.99 182.63Q309.21 181.82 307.79 181.82Q306.38 181.82 305.57 182.63Q304.77 183.43 304.77 184.92L304.77 192.84Q304.77 194.33 305.57 195.13Q306.38 195.94 307.79 195.94Q309.21 195.94 309.99 195.13Q310.77 194.33 310.77 192.84L312.93 192.84Q312.93 195.17 311.54 196.52Q310.14 197.88 307.79 197.88" fill="white" fill-opacity="0.7"/>
<path d="M328 197.64L323.92 197.64Q322.17 197.64 321.12 196.62Q320.08 195.60 320.08 193.92L320.08 182.09L315.52 182.09L315.52 180.12L322.24 180.12L322.24 193.92Q322.24 194.74 322.70 195.20Q323.15 195.67 323.92 195.67L328 195.67" fill="white" fill-opacity="0.7"/>
<path d="M335.25 197.88Q333.21 197.88 332.01 196.74Q330.81 195.60 330.81 193.75Q330.81 192.53 331.36 191.62Q331.91 190.70 332.90 190.19Q333.88 189.67 335.15 189.67L339.23 189.67L339.23 188.64Q339.23 186.07 336.42 186.07Q335.18 186.07 334.41 186.53Q333.64 186.98 333.59 187.80L331.43 187.80Q331.55 186.24 332.88 185.22Q334.22 184.20 336.42 184.20Q338.82 184.20 340.11 185.35Q341.39 186.50 341.39 188.57L341.39 197.64L339.26 197.64L339.26 195.24L339.21 195.24Q339.02 196.46 337.98 197.17Q336.95 197.88 335.25 197.88M335.78 196.06Q337.36 196.06 338.30 195.29Q339.23 194.52 339.23 193.20L339.23 191.35L335.39 191.35Q334.34 191.35 333.68 191.99Q333.02 192.62 333.02 193.68Q333.02 194.78 333.75 195.42Q334.48 196.06 335.78 196.06" fill="white" fill-opacity="0.7"/>
<path d="M351.33 197.83L350.27 197.83Q348.06 197.83 346.85 196.84Q345.64 195.84 345.64 194.02L347.80 194.02Q347.80 194.93 348.45 195.44Q349.10 195.96 350.27 195.96L351.33 195.96Q352.53 195.96 353.19 195.43Q353.85 194.90 353.85 193.94Q353.85 192.24 352.29 192.02L348.64 191.50Q347.30 191.30 346.55 190.38Q345.81 189.46 345.81 187.94Q345.81 186.22 347 185.23Q348.18 184.25 350.27 184.25L351.33 184.25Q353.25 184.25 354.46 185.20Q355.67 186.14 355.77 187.68L353.58 187.68Q353.54 186.98 352.92 186.53Q352.31 186.07 351.33 186.07L350.27 186.07Q349.17 186.07 348.54 186.58Q347.92 187.08 347.92 187.94Q347.92 189.34 349.19 189.53L352.60 190.01Q355.96 190.49 355.96 193.94Q355.96 195.79 354.75 196.81Q353.54 197.83 351.33 197.83" fill="white" fill-opacity="0.7"/>
<path d="M365.73 197.83L364.67 197.83Q362.46 197.83 361.25 196.84Q360.04 195.84 360.04 194.02L362.20 194.02Q362.20 194.93 362.85 195.44Q363.50 195.96 364.67 195.96L365.73 195.96Q366.93 195.96 367.59 195.43Q368.25 194.90 368.25 193.94Q368.25 192.24 366.69 192.02L363.04 191.50Q361.70 191.30 360.95 190.38Q360.21 189.46 360.21 187.94Q360.21 186.22 361.40 185.23Q362.58 184.25 364.67 184.25L365.73 184.25Q367.65 184.25 368.86 185.20Q370.07 186.14 370.17 187.68L367.98 187.68Q367.94 186.98 367.32 186.53Q366.71 186.07 365.73 186.07L364.67 186.07Q363.57 186.07 362.94 186.58Q362.32 187.08 362.32 187.94Q362.32 189.34 363.59 189.53L367 190.01Q370.36 190.49 370.36 193.94Q370.36 195.79 369.15 196.81Q367.94 197.83 365.73 197.83" fill="white" fill-opacity="0.7"/>
<path d="M390.16 197.64L387.76 197.64L392.80 188.76L388.02 180.12L390.52 180.12L393.23 185.30Q393.45 185.71 393.68 186.18Q393.90 186.65 394.05 186.91Q394.17 186.65 394.40 186.18Q394.62 185.71 394.84 185.30L397.60 180.12L399.98 180.12L395.20 188.62L400.24 197.64L397.77 197.64L394.77 192.07Q394.55 191.66 394.32 191.20Q394.10 190.73 393.98 190.44Q393.86 190.73 393.63 191.18Q393.40 191.64 393.18 192.05" fill="white" fill-opacity="0.7"/>
<path d="M427.24 198.43L427.24 200.52Q423.81 199.75 421.92 197.30Q420.04 194.86 420.04 191.16L420.04 186.84Q420.04 183.14 421.92 180.70Q423.81 178.25 427.24 177.48L427.24 179.57Q425.70 179.93 424.56 180.94Q423.42 181.94 422.81 183.44Q422.20 184.94 422.20 186.84L422.20 191.16Q422.20 193.03 422.81 194.54Q423.42 196.06 424.56 197.06Q425.70 198.07 427.24 198.43" fill="white" fill-opacity="0.7"/>
<path d="M442.65 197.64L432.06 197.64L432.06 195.65L437.90 189.41Q439.17 188.06 439.70 187.01Q440.22 185.95 440.22 184.94Q440.22 183.50 439.40 182.65Q438.57 181.80 437.15 181.80Q435.69 181.80 434.84 182.68Q433.98 183.55 433.98 185.04L431.82 185.04Q431.90 182.66 433.34 181.27Q434.78 179.88 437.15 179.88Q439.58 179.88 441 181.25Q442.43 182.62 442.43 184.97Q442.43 186.22 441.75 187.61Q441.06 189 439.41 190.73L434.68 195.67L442.65 195.67" fill="white" fill-opacity="0.7"/>
<path d="M451.60 197.88Q449.18 197.88 447.75 196.48Q446.32 195.07 446.32 192.72L446.32 185.04Q446.32 182.69 447.75 181.28Q449.18 179.88 451.60 179.88Q454.02 179.88 455.45 181.28Q456.88 182.69 456.88 185.04L456.88 192.72Q456.88 194.28 456.23 195.44Q455.58 196.61 454.40 197.24Q453.21 197.88 451.60 197.88M451.60 196.03Q453.04 196.03 453.92 195.11Q454.79 194.18 454.79 192.72L454.79 185.04Q454.79 183.58 453.92 182.65Q453.04 181.73 451.60 181.73Q450.16 181.73 449.28 182.65Q448.41 183.58 448.41 185.04L448.41 192.72Q448.41 194.18 449.28 195.11Q450.16 196.03 451.60 196.03M451.60 190.20Q450.95 190.20 450.56 189.84Q450.16 189.48 450.16 188.81Q450.16 188.16 450.56 187.81Q450.95 187.46 451.60 187.46Q452.25 187.46 452.64 187.81Q453.04 188.16 453.04 188.81Q453.04 189.48 452.64 189.84Q452.25 190.20 451.60 190.20" fill="white" fill-opacity="0.7"/>
<path d="M471.76 197.64L460.96 197.64L460.96 195.67L465.71 195.67L465.71 181.99L460.96 185.54L460.96 183.07L464.92 180.12L467.87 180.12L467.87 195.67L471.76 195.67" fill="white" fill-opacity="0.7"/>
<path d="M480.40 197.88Q478.74 197.88 477.47 197.23Q476.20 196.58 475.49 195.42Q474.78 194.26 474.78 192.74Q474.78 191.09 475.73 189.89Q476.68 188.69 478.26 188.42L478.26 188.35Q476.90 188.04 476.08 186.97Q475.26 185.90 475.26 184.51Q475.26 183.14 475.91 182.10Q476.56 181.06 477.72 180.47Q478.89 179.88 480.40 179.88Q481.94 179.88 483.09 180.47Q484.24 181.06 484.89 182.10Q485.54 183.14 485.54 184.51Q485.54 185.90 484.72 186.97Q483.90 188.04 482.54 188.35L482.54 188.42Q484.12 188.69 485.07 189.89Q486.02 191.09 486.02 192.74Q486.02 194.26 485.31 195.42Q484.60 196.58 483.34 197.23Q482.08 197.88 480.40 197.88M480.40 187.51Q481.74 187.51 482.56 186.72Q483.38 185.93 483.38 184.66Q483.38 183.38 482.56 182.59Q481.74 181.80 480.40 181.80Q479.08 181.80 478.25 182.59Q477.42 183.38 477.42 184.66Q477.42 185.93 478.25 186.72Q479.08 187.51 480.40 187.51M480.40 195.94Q481.94 195.94 482.90 195.04Q483.86 194.14 483.86 192.70Q483.86 191.23 482.90 190.33Q481.94 189.43 480.40 189.43Q478.86 189.43 477.90 190.33Q476.94 191.23 476.94 192.70Q476.94 194.14 477.90 195.04Q478.86 195.94 480.40 195.94" fill="white" fill-opacity="0.7"/>
<path d="M498.64 190.68L490.96 190.68L490.96 188.76L498.64 188.76" fill="white" fill-opacity="0.7"/>
<path d="M514.96 197.64L504.16 197.64L504.16 195.67L508.91 195.67L508.91 181.99L504.16 185.54L504.16 183.07L508.12 180.12L511.07 180.12L511.07 195.67L514.96 195.67" fill="white" fill-opacity="0.7"/>
<path d="M523.60 197.64L521.08 197.64L525.40 190.13L525.33 190.08Q525.09 190.46 524.44 190.69Q523.79 190.92 523.02 190.92Q521.51 190.92 520.37 190.24Q519.23 189.55 518.58 188.35Q517.94 187.15 517.94 185.57Q517.94 183.86 518.66 182.59Q519.38 181.32 520.65 180.60Q521.92 179.88 523.58 179.88Q525.28 179.88 526.55 180.59Q527.82 181.30 528.54 182.56Q529.26 183.82 529.26 185.47Q529.26 186.62 528.83 187.84Q528.40 189.05 527.66 190.37L523.60 197.64M523.60 189.24Q525.16 189.24 526.13 188.21Q527.10 187.18 527.10 185.52Q527.10 183.86 526.13 182.83Q525.16 181.80 523.60 181.80Q522.04 181.80 521.07 182.83Q520.10 183.86 520.10 185.52Q520.10 187.18 521.07 188.21Q522.04 189.24 523.60 189.24" fill="white" fill-opacity="0.7"/>
<path d="M533.56 200.52L533.56 198.43Q535.12 198.07 536.25 197.06Q537.38 196.06 537.99 194.54Q538.60 193.03 538.60 191.16L538.60 186.84Q538.60 184.94 537.99 183.44Q537.38 181.94 536.25 180.94Q535.12 179.93 533.56 179.57L533.56 177.48Q536.99 178.25 538.88 180.70Q540.76 183.14 540.76 186.84L540.76 191.16Q540.76 194.86 538.88 197.30Q536.99 199.75 533.56 200.52" fill="white" fill-opacity="0.7"/>
<path d="M564.76 197.86Q562.65 197.86 561.42 196.62Q560.20 195.38 560.20 193.27L560.20 191.90Q560.20 189.98 561.28 188.83Q562.36 187.68 564.18 187.58L563.51 186.72Q562.22 185.02 562.22 183.70Q562.22 181.99 563.37 180.94Q564.52 179.88 566.37 179.88Q567.69 179.88 568.68 180.46Q569.68 181.03 570.24 182.05Q570.81 183.07 570.81 184.44L568.70 184.44Q568.70 183.24 568.06 182.48Q567.42 181.73 566.37 181.73Q565.48 181.73 564.92 182.28Q564.35 182.83 564.35 183.74Q564.35 184.68 565.05 185.57L569.73 191.62L571.91 188.88L574.31 188.88L570.88 193.10L574.36 197.64L571.98 197.64L569.66 194.57L568.62 195.86Q567.81 196.87 566.81 197.36Q565.82 197.86 564.76 197.86M564.90 195.91Q566.27 195.91 567.23 194.69L568.48 193.10L565.48 189.26L564.76 189.26Q563.63 189.26 562.97 189.97Q562.31 190.68 562.31 191.90L562.31 193.27Q562.31 194.50 563.02 195.20Q563.73 195.91 564.90 195.91" fill="white" fill-opacity="0.7"/>
<path d="M591.76 197.64L589.36 197.64L594.40 188.76L589.62 180.12L592.12 180.12L594.83 185.30Q595.05 185.71 595.28 186.18Q595.50 186.65 595.65 186.91Q595.77 186.65 596 186.18Q596.22 185.71 596.44 185.30L599.20 180.12L601.58 180.12L596.80 188.62L601.84 197.64L599.37 197.64L596.37 192.07Q596.15 191.66 595.92 191.20Q595.70 190.73 595.58 190.44Q595.46 190.73 595.23 191.18Q595 191.64 594.78 192.05" fill="white" fill-opacity="0.7"/>
<path d="M614.68 197.64L605.32 197.64L605.32 195.67L608.90 195.67L608.90 182.09L605.32 182.09L605.32 180.12L614.68 180.12L614.68 182.09L611.10 182.09L611.10 195.67L614.68 195.67" fill="white" fill-opacity="0.7"/>
<path d="M629.08 197.64L619.72 197.64L619.72 195.67L623.30 195.67L623.30 182.09L619.72 182.09L619.72 180.12L629.08 180.12L629.08 182.09L625.50 182.09L625.50 195.67L629.08 195.67" fill="white" fill-opacity="0.7"/>
<path d="M657.64 198.43L657.64 200.52Q654.21 199.75 652.32 197.30Q650.44 194.86 650.44 191.16L650.44 186.84Q650.44 183.14 652.32 180.70Q654.21 178.25 657.64 177.48L657.64 179.57Q656.10 179.93 654.96 180.94Q653.82 181.94 653.21 183.44Q652.60 184.94 652.60 186.84L652.60 191.16Q652.60 193.03 653.21 194.54Q653.82 196.06 654.96 197.06Q656.10 198.07 657.64 198.43" fill="white" fill-opacity="0.7"/>
<path d="M673.05 197.64L662.46 197.64L662.46 195.65L668.30 189.41Q669.57 188.06 670.10 187.01Q670.62 185.95 670.62 184.94Q670.62 183.50 669.80 182.65Q668.97 181.80 667.55 181.80Q666.09 181.80 665.24 182.68Q664.38 183.55 664.38 185.04L662.22 185.04Q662.30 182.66 663.74 181.27Q665.18 179.88 667.55 179.88Q669.98 179.88 671.40 181.25Q672.83 182.62 672.83 184.97Q672.83 186.22 672.15 187.61Q671.46 189 669.81 190.73L665.08 195.67L673.05 195.67" fill="white" fill-opacity="0.7"/>
<path d="M682 197.88Q679.58 197.88 678.15 196.48Q676.72 195.07 676.72 192.72L676.72 185.04Q676.72 182.69 678.15 181.28Q679.58 179.88 682 179.88Q684.42 179.88 685.85 181.28Q687.28 182.69 687.28 185.04L687.28 192.72Q687.28 194.28 686.63 195.44Q685.98 196.61 684.80 197.24Q683.61 197.88 682 197.88M682 196.03Q683.44 196.03 684.32 195.11Q685.19 194.18 685.19 192.72L685.19 185.04Q685.19 183.58 684.32 182.65Q683.44 181.73 682 181.73Q680.56 181.73 679.68 182.65Q678.81 183.58 678.81 185.04L678.81 192.72Q678.81 194.18 679.68 195.11Q680.56 196.03 682 196.03M682 190.20Q681.35 190.20 680.96 189.84Q680.56 189.48 680.56 188.81Q680.56 188.16 680.96 187.81Q681.35 187.46 682 187.46Q682.65 187.46 683.04 187.81Q683.44 188.16 683.44 188.81Q683.44 189.48 683.04 189.84Q682.65 190.20 682 190.20" fill="white" fill-opacity="0.7"/>
<path d="M702.16 197.64L691.36 197.64L691.36 195.67L696.11 195.67L696.11 181.99L691.36 185.54L691.36 183.07L695.32 180.12L698.27 180.12L698.27 195.67L702.16 195.67" fill="white" fill-opacity="0.7"/>
<path d="M710.80 197.64L708.28 197.64L712.60 190.13L712.53 190.08Q712.29 190.46 711.64 190.69Q710.99 190.92 710.22 190.92Q708.71 190.92 707.57 190.24Q706.43 189.55 705.78 188.35Q705.14 187.15 705.14 185.57Q705.14 183.86 705.86 182.59Q706.58 181.32 707.85 180.60Q709.12 179.88 710.78 179.88Q712.48 179.88 713.75 180.59Q715.02 181.30 715.74 182.56Q716.46 183.82 716.46 185.47Q716.46 186.62 716.03 187.84Q715.60 189.05 714.86 190.37L710.80 197.64M710.80 189.24Q712.36 189.24 713.33 188.21Q714.30 187.18 714.30 185.52Q714.30 183.86 713.33 182.83Q712.36 181.80 710.80 181.80Q709.24 181.80 708.27 182.83Q707.30 183.86 707.30 185.52Q707.30 187.18 708.27 188.21Q709.24 189.24 710.80 189.24" fill="white" fill-opacity="0.7"/>
<path d="M720.76 200.52L720.76 198.43Q722.32 198.07 723.45 197.06Q724.58 196.06 725.19 194.54Q725.80 193.03 725.80 191.16L725.80 186.84Q725.80 184.94 725.19 183.44Q724.58 181.94 723.45 180.94Q722.32 179.93 720.76 179.57L720.76 177.48Q724.19 178.25 726.08 180.70Q727.96 183.14 727.96 186.84L727.96 191.16Q727.96 194.86 726.08 197.30Q724.19 199.75 720.76 200.52" fill="white" fill-opacity="0.7"/>
<path d="M750.26 197.64L748.24 197.64L748.24 184.44L750.11 184.44L750.11 186.19L750.16 186.19Q750.28 185.30 750.87 184.75Q751.46 184.20 752.37 184.20Q753.23 184.20 753.83 184.70Q754.43 185.21 754.70 186.07L754.72 186.07Q754.89 185.21 755.48 184.70Q756.06 184.20 756.98 184.20Q758.25 184.20 759 185.15Q759.76 186.10 759.76 187.61L759.76 197.64L757.74 197.64L757.74 187.58Q757.74 186.79 757.36 186.32Q756.98 185.86 756.30 185.86Q755.66 185.86 755.27 186.31Q754.89 186.77 754.89 187.56L754.89 197.64L753.11 197.64L753.11 187.58Q753.11 186.79 752.73 186.32Q752.34 185.86 751.70 185.86Q751.02 185.86 750.64 186.31Q750.26 186.77 750.26 187.56" fill="white" fill-opacity="0.7"/>
<path d="M767.25 197.88Q765.21 197.88 764.01 196.74Q762.81 195.60 762.81 193.75Q762.81 192.53 763.36 191.62Q763.91 190.70 764.90 190.19Q765.88 189.67 767.15 189.67L771.23 189.67L771.23 188.64Q771.23 186.07 768.42 186.07Q767.18 186.07 766.41 186.53Q765.64 186.98 765.59 187.80L763.43 187.80Q763.55 186.24 764.88 185.22Q766.22 184.20 768.42 184.20Q770.82 184.20 772.11 185.35Q773.39 186.50 773.39 188.57L773.39 197.64L771.26 197.64L771.26 195.24L771.21 195.24Q771.02 196.46 769.98 197.17Q768.95 197.88 767.25 197.88M767.78 196.06Q769.36 196.06 770.30 195.29Q771.23 194.52 771.23 193.20L771.23 191.35L767.39 191.35Q766.34 191.35 765.68 191.99Q765.02 192.62 765.02 193.68Q765.02 194.78 765.75 195.42Q766.48 196.06 767.78 196.06" fill="white" fill-opacity="0.7"/>
<path d="M780.45 197.64L778.29 197.64L778.29 184.44L780.45 184.44L780.45 186.96L780.50 186.96Q780.66 185.69 781.58 184.94Q782.49 184.20 784.02 184.20Q786.09 184.20 787.20 185.44Q788.32 186.67 788.32 188.95L788.32 190.08L786.16 190.08L786.16 188.95Q786.16 186.07 783.35 186.07Q781.94 186.07 781.19 186.89Q780.45 187.70 780.45 189.24" fill="white" fill-opacity="0.7"/>
<path d="M794.49 197.64L792.33 197.64L792.33 180.12L794.49 180.12L794.49 189.89L797.01 189.89L800.70 184.44L803.18 184.44L798.93 190.73L803.42 197.64L800.90 197.64L797.06 191.76L794.49 191.76" fill="white" fill-opacity="0.7"/>
<path d="M826.53 197.83L825.47 197.83Q823.26 197.83 822.05 196.84Q820.84 195.84 820.84 194.02L823 194.02Q823 194.93 823.65 195.44Q824.30 195.96 825.47 195.96L826.53 195.96Q827.73 195.96 828.39 195.43Q829.05 194.90 829.05 193.94Q829.05 192.24 827.49 192.02L823.84 191.50Q822.50 191.30 821.75 190.38Q821.01 189.46 821.01 187.94Q821.01 186.22 822.20 185.23Q823.38 184.25 825.47 184.25L826.53 184.25Q828.45 184.25 829.66 185.20Q830.87 186.14 830.97 187.68L828.78 187.68Q828.74 186.98 828.12 186.53Q827.51 186.07 826.53 186.07L825.47 186.07Q824.37 186.07 823.74 186.58Q823.12 187.08 823.12 187.94Q823.12 189.34 824.39 189.53L827.80 190.01Q831.16 190.49 831.16 193.94Q831.16 195.79 829.95 196.81Q828.74 197.83 826.53 197.83" fill="white" fill-opacity="0.7"/>
<path d="M837.57 197.64L835.41 197.64L835.41 180.12L837.57 180.12L837.57 186.96L837.59 186.96Q837.76 185.64 838.67 184.92Q839.58 184.20 841.10 184.20Q843.09 184.20 844.26 185.42Q845.44 186.65 845.44 188.76L845.44 197.64L843.28 197.64L843.28 189.12Q843.28 187.63 842.52 186.83Q841.77 186.02 840.47 186.02Q839.13 186.02 838.35 186.86Q837.57 187.70 837.57 189.24" fill="white" fill-opacity="0.7"/>
<path d="M854.80 197.88Q852.47 197.88 851.04 196.48Q849.62 195.07 849.62 192.60L849.62 189.48Q849.62 187.01 851.04 185.60Q852.47 184.20 854.80 184.20Q856.36 184.20 857.52 184.82Q858.69 185.45 859.34 186.58Q859.98 187.70 859.98 189.24L859.98 191.59L851.73 191.59L851.73 192.84Q851.73 194.30 852.57 195.16Q853.41 196.01 854.80 196.01Q856 196.01 856.78 195.54Q857.56 195.07 857.73 194.28L859.89 194.28Q859.67 195.94 858.28 196.91Q856.89 197.88 854.80 197.88M851.73 189.24L851.73 189.91L857.87 189.91L857.87 189.24Q857.87 187.68 857.07 186.83Q856.26 185.98 854.80 185.98Q853.34 185.98 852.53 186.83Q851.73 187.68 851.73 189.24" fill="white" fill-opacity="0.7"/>
<path d="M869.20 197.88Q866.87 197.88 865.44 196.48Q864.02 195.07 864.02 192.60L864.02 189.48Q864.02 187.01 865.44 185.60Q866.87 184.20 869.20 184.20Q870.76 184.20 871.92 184.82Q873.09 185.45 873.74 186.58Q874.38 187.70 874.38 189.24L874.38 191.59L866.13 191.59L866.13 192.84Q866.13 194.30 866.97 195.16Q867.81 196.01 869.20 196.01Q870.40 196.01 871.18 195.54Q871.96 195.07 872.13 194.28L874.29 194.28Q874.07 195.94 872.68 196.91Q871.29 197.88 869.20 197.88M866.13 189.24L866.13 189.91L872.27 189.91L872.27 189.24Q872.27 187.68 871.47 186.83Q870.66 185.98 869.20 185.98Q867.74 185.98 866.93 186.83Q866.13 187.68 866.13 189.24" fill="white" fill-opacity="0.7"/>
<path d="M888.76 197.64L884.92 197.64Q883.29 197.64 882.30 196.69Q881.32 195.74 881.32 194.16L881.32 186.41L877.53 186.41L877.53 184.44L881.32 184.44L881.32 180.72L883.48 180.72L883.48 184.44L888.88 184.44L888.88 186.41L883.48 186.41L883.48 194.16Q883.48 194.83 883.88 195.25Q884.27 195.67 884.92 195.67L888.76 195.67" fill="white" fill-opacity="0.7"/>
<path d="M898.53 197.83L897.47 197.83Q895.26 197.83 894.05 196.84Q892.84 195.84 892.84 194.02L895 194.02Q895 194.93 895.65 195.44Q896.30 195.96 897.47 195.96L898.53 195.96Q899.73 195.96 900.39 195.43Q901.05 194.90 901.05 193.94Q901.05 192.24 899.49 192.02L895.84 191.50Q894.50 191.30 893.75 190.38Q893.01 189.46 893.01 187.94Q893.01 186.22 894.20 185.23Q895.38 184.25 897.47 184.25L898.53 184.25Q900.45 184.25 901.66 185.20Q902.87 186.14 902.97 187.68L900.78 187.68Q900.74 186.98 900.12 186.53Q899.51 186.07 898.53 186.07L897.47 186.07Q896.37 186.07 895.74 186.58Q895.12 187.08 895.12 187.94Q895.12 189.34 896.39 189.53L899.80 190.01Q903.16 190.49 903.16 193.94Q903.16 195.79 901.95 196.81Q900.74 197.83 898.53 197.83" fill="white" fill-opacity="0.7"/>
<path d="M925.65 197.88Q923.61 197.88 922.41 196.74Q921.21 195.60 921.21 193.75Q921.21 192.53 921.76 191.62Q922.31 190.70 923.30 190.19Q924.28 189.67 925.55 189.67L929.63 189.67L929.63 188.64Q929.63 186.07 926.82 186.07Q925.58 186.07 924.81 186.53Q924.04 186.98 923.99 187.80L921.83 187.80Q921.95 186.24 923.28 185.22Q924.62 184.20 926.82 184.20Q929.22 184.20 930.51 185.35Q931.79 186.50 931.79 188.57L931.79 197.64L929.66 197.64L929.66 195.24L929.61 195.24Q929.42 196.46 928.38 197.17Q927.35 197.88 925.65 197.88M926.18 196.06Q927.76 196.06 928.70 195.29Q929.63 194.52 929.63 193.20L929.63 191.35L925.79 191.35Q924.74 191.35 924.08 191.99Q923.42 192.62 923.42 193.68Q923.42 194.78 924.15 195.42Q924.88 196.06 926.18 196.06" fill="white" fill-opacity="0.7"/>
<path d="M942.62 197.64L939.78 197.64L935.30 184.44L937.62 184.44L940.50 193.32Q940.77 194.11 940.96 194.84Q941.15 195.58 941.25 195.98Q941.37 195.58 941.54 194.84Q941.70 194.11 941.94 193.32L944.82 184.44L947.10 184.44" fill="white" fill-opacity="0.7"/>
<path d="M954.45 197.88Q952.41 197.88 951.21 196.74Q950.01 195.60 950.01 193.75Q950.01 192.53 950.56 191.62Q951.11 190.70 952.10 190.19Q953.08 189.67 954.35 189.67L958.43 189.67L958.43 188.64Q958.43 186.07 955.62 186.07Q954.38 186.07 953.61 186.53Q952.84 186.98 952.79 187.80L950.63 187.80Q950.75 186.24 952.08 185.22Q953.42 184.20 955.62 184.20Q958.02 184.20 959.31 185.35Q960.59 186.50 960.59 188.57L960.59 197.64L958.46 197.64L958.46 195.24L958.41 195.24Q958.22 196.46 957.18 197.17Q956.15 197.88 954.45 197.88M954.98 196.06Q956.56 196.06 957.50 195.29Q958.43 194.52 958.43 193.20L958.43 191.35L954.59 191.35Q953.54 191.35 952.88 191.99Q952.22 192.62 952.22 193.68Q952.22 194.78 952.95 195.42Q953.68 196.06 954.98 196.06" fill="white" fill-opacity="0.7"/>
<path d="M976.12 197.64L964.84 197.64L964.84 195.67L969.52 195.67L969.52 186.41L965.32 186.41L965.32 184.44L971.68 184.44L971.68 195.67L976.12 195.67L976.12 197.64M970.36 182.06Q969.57 182.06 969.11 181.66Q968.66 181.25 968.66 180.55Q968.66 179.83 969.11 179.41Q969.57 178.99 970.36 178.99Q971.15 178.99 971.61 179.41Q972.06 179.83 972.06 180.55Q972.06 181.25 971.61 181.66Q971.15 182.06 970.36 182.06" fill="white" fill-opacity="0.7"/>
<path d="M990.40 197.64L986.32 197.64Q984.57 197.64 983.52 196.62Q982.48 195.60 982.48 193.92L982.48 182.09L977.92 182.09L977.92 180.12L984.64 180.12L984.64 193.92Q984.64 194.74 985.10 195.20Q985.55 195.67 986.32 195.67L990.40 195.67" fill="white" fill-opacity="0.7"/>
<path d="M997.65 197.88Q995.61 197.88 994.41 196.74Q993.21 195.60 993.21 193.75Q993.21 192.53 993.76 191.62Q994.31 190.70 995.30 190.19Q996.28 189.67 997.55 189.67L1001.63 189.67L1001.63 188.64Q1001.63 186.07 998.82 186.07Q997.58 186.07 996.81 186.53Q996.04 186.98 995.99 187.80L993.83 187.80Q993.95 186.24 995.28 185.22Q996.62 184.20 998.82 184.20Q1001.22 184.20 1002.51 185.35Q1003.79 186.50 1003.79 188.57L1003.79 197.64L1001.66 197.64L1001.66 195.24L1001.61 195.24Q1001.42 196.46 1000.38 197.17Q999.35 197.88 997.65 197.88M998.18 196.06Q999.76 196.06 1000.70 195.29Q1001.63 194.52 1001.63 193.20L1001.63 191.35L997.79 191.35Q996.74 191.35 996.08 191.99Q995.42 192.62 995.42 193.68Q995.42 194.78 996.15 195.42Q996.88 196.06 998.18 196.06" fill="white" fill-opacity="0.7"/>
<path d="M1013.97 197.88Q1012.48 197.88 1011.52 197.15Q1010.56 196.42 1010.39 195.12L1010.37 195.12L1010.37 197.64L1008.21 197.64L1008.21 180.12L1010.37 180.12L1010.37 183.96L1010.32 186.96L1010.34 186.96Q1010.54 185.69 1011.51 184.94Q1012.48 184.20 1013.97 184.20Q1015.96 184.20 1017.14 185.52Q1018.31 186.84 1018.31 189.12L1018.31 192.98Q1018.31 195.24 1017.14 196.56Q1015.96 197.88 1013.97 197.88M1013.25 196.01Q1014.62 196.01 1015.38 195.29Q1016.15 194.57 1016.15 192.96L1016.15 189.12Q1016.15 187.49 1015.38 186.78Q1014.62 186.07 1013.25 186.07Q1011.93 186.07 1011.15 186.91Q1010.37 187.75 1010.37 189.24L1010.37 192.84Q1010.37 194.33 1011.15 195.17Q1011.93 196.01 1013.25 196.01" fill="white" fill-opacity="0.7"/>
<path d="M1033.60 197.64L1029.52 197.64Q1027.77 197.64 1026.72 196.62Q1025.68 195.60 1025.68 193.92L1025.68 182.09L1021.12 182.09L1021.12 180.12L1027.84 180.12L1027.84 193.92Q1027.84 194.74 1028.30 195.20Q1028.75 195.67 1029.52 195.67L1033.60 195.67" fill="white" fill-opacity="0.7"/>
<path d="M1042 197.88Q1039.67 197.88 1038.24 196.48Q1036.82 195.07 1036.82 192.60L1036.82 189.48Q1036.82 187.01 1038.24 185.60Q1039.67 184.20 1042 184.20Q1043.56 184.20 1044.72 184.82Q1045.89 185.45 1046.54 186.58Q1047.18 187.70 1047.18 189.24L1047.18 191.59L1038.93 191.59L1038.93 192.84Q1038.93 194.30 1039.77 195.16Q1040.61 196.01 1042 196.01Q1043.20 196.01 1043.98 195.54Q1044.76 195.07 1044.93 194.28L1047.09 194.28Q1046.87 195.94 1045.48 196.91Q1044.09 197.88 1042 197.88M1038.93 189.24L1038.93 189.91L1045.07 189.91L1045.07 189.24Q1045.07 187.68 1044.27 186.83Q1043.46 185.98 1042 185.98Q1040.54 185.98 1039.73 186.83Q1038.93 187.68 1038.93 189.24" fill="white" fill-opacity="0.7"/>
<path d="M1070.80 197.83Q1068.42 197.83 1067.02 196.44Q1065.62 195.05 1065.62 192.55L1065.62 189.53Q1065.62 187.01 1067.01 185.63Q1068.40 184.25 1070.80 184.25Q1073.20 184.25 1074.59 185.63Q1075.98 187.01 1075.98 189.53L1075.98 192.55Q1075.98 195.05 1074.58 196.44Q1073.18 197.83 1070.80 197.83M1070.80 195.91Q1072.22 195.91 1073.02 195.12Q1073.82 194.33 1073.82 192.79L1073.82 189.29Q1073.82 187.75 1073.02 186.96Q1072.22 186.17 1070.80 186.17Q1069.41 186.17 1068.59 186.96Q1067.78 187.75 1067.78 189.29L1067.78 192.79Q1067.78 194.33 1068.59 195.12Q1069.41 195.91 1070.80 195.91" fill="white" fill-opacity="0.7"/>
<path d="M1082.37 197.64L1080.21 197.64L1080.21 184.44L1082.37 184.44L1082.37 186.96L1082.39 186.96Q1082.56 185.64 1083.47 184.92Q1084.38 184.20 1085.90 184.20Q1087.89 184.20 1089.06 185.42Q1090.24 186.65 1090.24 188.76L1090.24 197.64L1088.08 197.64L1088.08 189.14Q1088.08 187.63 1087.32 186.83Q1086.57 186.02 1085.27 186.02Q1083.93 186.02 1083.15 186.86Q1082.37 187.70 1082.37 189.24" fill="white" fill-opacity="0.7"/>
<path d="M76.74 229.64L72.21 229.64L72.21 212.12L76.74 212.12Q78.45 212.12 79.68 212.77Q80.92 213.42 81.60 214.59Q82.29 215.77 82.29 217.38L82.29 224.36Q82.29 225.97 81.60 227.16Q80.92 228.34 79.68 228.99Q78.45 229.64 76.74 229.64M74.37 214.04L74.37 227.72L76.74 227.72Q78.33 227.72 79.23 226.83Q80.13 225.94 80.13 224.36L80.13 217.38Q80.13 215.82 79.23 214.93Q78.33 214.04 76.74 214.04" fill="white" fill-opacity="0.7"/>
<path d="M97.72 229.64L86.44 229.64L86.44 227.67L91.12 227.67L91.12 218.41L86.92 218.41L86.92 216.44L93.28 216.44L93.28 227.67L97.72 227.67L97.72 229.64M91.96 214.06Q91.17 214.06 90.71 213.66Q90.26 213.25 90.26 212.55Q90.26 211.83 90.71 211.41Q91.17 210.99 91.96 210.99Q92.75 210.99 93.21 211.41Q93.66 211.83 93.66 212.55Q93.66 213.25 93.21 213.66Q92.75 214.06 91.96 214.06" fill="white" fill-opacity="0.7"/>
<path d="M106.36 233.96L102.66 233.96L102.66 231.99L106.38 231.99Q107.51 231.99 108.16 231.36Q108.81 230.72 108.81 229.64L108.81 228.44L108.86 226.28L108.78 226.28Q108.59 227.46 107.66 228.09Q106.72 228.73 105.30 228.73Q103.26 228.73 102.09 227.43Q100.91 226.14 100.91 223.88L100.91 221.10Q100.91 218.84 102.09 217.52Q103.26 216.20 105.30 216.20Q106.72 216.20 107.66 216.87Q108.59 217.54 108.78 218.72L108.83 218.72L108.83 216.44L110.97 216.44L110.97 229.64Q110.97 231.63 109.73 232.80Q108.50 233.96 106.36 233.96M105.95 226.93Q107.30 226.93 108.06 226.09Q108.83 225.25 108.83 223.76L108.83 221.24Q108.83 219.75 108.06 218.91Q107.30 218.07 105.95 218.07Q104.58 218.07 103.83 218.86Q103.07 219.66 103.07 221L103.07 224Q103.07 225.34 103.83 226.14Q104.58 226.93 105.95 226.93" fill="white" fill-opacity="0.7"/>
<path d="M126.52 229.64L115.24 229.64L115.24 227.67L119.92 227.67L119.92 218.41L115.72 218.41L115.72 216.44L122.08 216.44L122.08 227.67L126.52 227.67L126.52 229.64M120.76 214.06Q119.97 214.06 119.51 213.66Q119.06 213.25 119.06 212.55Q119.06 211.83 119.51 211.41Q119.97 210.99 120.76 210.99Q121.55 210.99 122.01 211.41Q122.46 211.83 122.46 212.55Q122.46 213.25 122.01 213.66Q121.55 214.06 120.76 214.06" fill="white" fill-opacity="0.7"/>
<path d="M140.80 229.64L130.72 229.64L130.72 212.12L132.88 212.12L132.88 227.67L140.80 227.67" fill="white" fill-opacity="0.7"/>
<path d="M149.20 229.83Q146.82 229.83 145.42 228.44Q144.02 227.05 144.02 224.55L144.02 221.53Q144.02 219.01 145.41 217.63Q146.80 216.25 149.20 216.25Q151.60 216.25 152.99 217.63Q154.38 219.01 154.38 221.53L154.38 224.55Q154.38 227.05 152.98 228.44Q151.58 229.83 149.20 229.83M149.20 227.91Q150.62 227.91 151.42 227.12Q152.22 226.33 152.22 224.79L152.22 221.29Q152.22 219.75 151.42 218.96Q150.62 218.17 149.20 218.17Q147.81 218.17 146.99 218.96Q146.18 219.75 146.18 221.29L146.18 224.79Q146.18 226.33 146.99 227.12Q147.81 227.91 149.20 227.91" fill="white" fill-opacity="0.7"/>
<path d="M163.79 229.88Q161.39 229.88 159.95 228.54Q158.51 227.19 158.51 224.84L158.51 221.24Q158.51 218.89 159.95 217.54Q161.39 216.20 163.79 216.20Q166.07 216.20 167.48 217.42Q168.88 218.65 168.95 220.76L166.79 220.76Q166.72 219.49 165.93 218.80Q165.14 218.12 163.79 218.12Q162.38 218.12 161.52 218.92Q160.67 219.73 160.67 221.22L160.67 224.84Q160.67 226.33 161.52 227.14Q162.38 227.96 163.79 227.96Q165.14 227.96 165.93 227.26Q166.72 226.57 166.79 225.32L168.95 225.32Q168.88 227.43 167.48 228.66Q166.07 229.88 163.79 229.88" fill="white" fill-opacity="0.7"/>
<path d="M175.29 229.64L173.13 229.64L173.13 212.12L175.29 212.12L175.29 221.89L177.81 221.89L181.50 216.44L183.98 216.44L179.73 222.73L184.22 229.64L181.70 229.64L177.86 223.76L175.29 223.76" fill="white" fill-opacity="0.7"/>
<path d="M192.40 229.88Q190.07 229.88 188.64 228.48Q187.22 227.07 187.22 224.60L187.22 221.48Q187.22 219.01 188.64 217.60Q190.07 216.20 192.40 216.20Q193.96 216.20 195.12 216.82Q196.29 217.45 196.94 218.58Q197.58 219.70 197.58 221.24L197.58 223.59L189.33 223.59L189.33 224.84Q189.33 226.30 190.17 227.16Q191.01 228.01 192.40 228.01Q193.60 228.01 194.38 227.54Q195.16 227.07 195.33 226.28L197.49 226.28Q197.27 227.94 195.88 228.91Q194.49 229.88 192.40 229.88M189.33 221.24L189.33 221.91L195.47 221.91L195.47 221.24Q195.47 219.68 194.67 218.83Q193.86 217.98 192.40 217.98Q190.94 217.98 190.13 218.83Q189.33 219.68 189.33 221.24" fill="white" fill-opacity="0.7"/>
<path d="M204.45 229.64L202.29 229.64L202.29 216.44L204.45 216.44L204.45 218.96L204.50 218.96Q204.66 217.69 205.58 216.94Q206.49 216.20 208.02 216.20Q210.09 216.20 211.20 217.44Q212.32 218.67 212.32 220.95L212.32 222.08L210.16 222.08L210.16 220.95Q210.16 218.07 207.35 218.07Q205.94 218.07 205.19 218.89Q204.45 219.70 204.45 221.24" fill="white" fill-opacity="0.7"/>
<path d="M221.20 229.88Q220.31 229.88 219.77 229.35Q219.23 228.82 219.23 227.98Q219.23 227.10 219.77 226.54Q220.31 225.99 221.20 225.99Q222.09 225.99 222.63 226.54Q223.17 227.10 223.17 227.98Q223.17 228.82 222.63 229.35Q222.09 229.88 221.20 229.88" fill="white" fill-opacity="0.7"/>
<path d="M76.11 136.06L66.42 136.06L84.56 65.98L97.14 65.98L115.18 136.06L105.49 136.06L101.07 117.82L80.53 117.82L76.11 136.06M87.54 88.92L82.45 109.95L99.15 109.95L94.16 89.02Q92.72 83.26 91.86 79.23Q90.99 75.20 90.80 73.76Q90.61 75.20 89.74 79.23Q88.88 83.26 87.54 88.92M137.55 136.06L128.05 136.06L128.05 65.98L150.80 65.98Q157.52 65.98 162.42 68.57Q167.31 71.16 170 75.82Q172.69 80.48 172.69 86.91Q172.69 93.24 170 97.90Q167.31 102.56 162.37 105.15Q157.42 107.74 150.80 107.74L137.55 107.74L137.55 136.06M137.55 74.43L137.55 99.29L150.80 99.29Q156.37 99.29 159.63 95.88Q162.90 92.48 162.90 86.91Q162.90 81.24 159.63 77.84Q156.37 74.43 150.80 74.43L137.55 74.43M225.10 136.06L186.90 136.06L186.90 127.42L201.20 127.42L201.20 74.62L186.90 74.62L186.90 65.98L225.10 65.98L225.10 74.62L210.80 74.62L210.80 127.42L225.10 127.42L225.10 136.06M263.98 137.02Q253.62 137.02 247.47 131.60Q241.33 126.17 241.33 116.67L250.83 116.67Q250.83 122.24 254.38 125.40Q257.94 128.57 263.98 128.57Q269.74 128.57 273.15 125.36Q276.56 122.14 276.56 116.76Q276.56 112.73 274.35 109.71Q272.14 106.68 268.11 105.63L257.74 102.84Q250.93 100.92 246.94 95.88Q242.96 90.84 242.96 83.93Q242.96 78.27 245.50 74Q248.05 69.72 252.66 67.37Q257.26 65.02 263.31 65.02Q269.46 65.02 274.11 67.37Q278.77 69.72 281.36 73.95Q283.95 78.17 283.95 83.74L274.54 83.74Q274.54 79.13 271.42 76.25Q268.30 73.37 263.31 73.37Q258.32 73.37 255.30 76.25Q252.27 79.13 252.27 83.74Q252.27 87.48 254.29 90.03Q256.30 92.57 259.95 93.63L270.61 96.51Q277.81 98.43 281.84 103.85Q285.87 109.28 285.87 116.76Q285.87 122.91 283.18 127.47Q280.50 132.03 275.55 134.52Q270.61 137.02 263.98 137.02M342.51 136.06L301.71 136.06L301.71 65.98L342.51 65.98L342.51 74.52L311.12 74.52L311.12 95.36L339.15 95.36L339.15 103.61L311.12 103.61L311.12 127.52L342.51 127.52L342.51 136.06M383.60 136.06L374.10 136.06L374.10 74.62L355.09 74.62L355.09 65.98L402.51 65.98L402.51 74.62L383.60 74.62L383.60 136.06M436.40 137.02Q426.51 137.02 421.18 131.55Q415.86 126.08 415.86 116.67L415.86 65.98L425.36 65.98L425.36 116.67Q425.36 122.24 428.10 125.40Q430.83 128.57 436.40 128.57Q441.87 128.57 444.70 125.40Q447.54 122.24 447.54 116.67L447.54 65.98L457.04 65.98L457.04 116.67Q457.04 126.17 451.71 131.60Q446.38 137.02 436.40 137.02M551.98 137.02Q542.29 137.02 536.58 131.60Q530.86 126.17 530.86 116.67L530.86 85.28Q530.86 75.87 536.58 70.44Q542.29 65.02 551.98 65.02Q561.58 65.02 567.30 70.49Q573.01 75.96 573.01 85.28L563.50 85.28Q563.50 79.61 560.43 76.54Q557.36 73.47 551.98 73.47Q546.51 73.47 543.44 76.54Q540.37 79.61 540.37 85.28L540.37 116.67Q540.37 122.43 543.44 125.50Q546.51 128.57 551.98 128.57Q557.36 128.57 560.43 125.50Q563.50 122.43 563.50 116.67L563.50 107.55L549.87 107.55L549.87 99.10L573.01 99.10L573.01 116.67Q573.01 126.08 567.30 131.55Q561.58 137.02 551.98 137.02M609.20 137.02Q599.60 137.02 594.03 131.45Q588.46 125.88 588.46 115.71L588.46 86.24Q588.46 76.16 594.03 70.59Q599.60 65.02 609.20 65.02Q618.80 65.02 624.37 70.54Q629.94 76.06 629.94 86.24L629.94 115.71Q629.94 125.88 624.37 131.45Q618.80 137.02 609.20 137.02M609.20 128.57Q614.58 128.57 617.50 125.50Q620.43 122.43 620.43 116.67L620.43 85.28Q620.43 79.61 617.55 76.54Q614.67 73.47 609.20 73.47Q603.73 73.47 600.85 76.54Q597.97 79.61 597.97 85.28L597.97 116.67Q597.97 122.43 600.90 125.50Q603.82 128.57 609.20 128.57M673.14 136.06L660.37 136.06L642.42 65.98L652.21 65.98L663.82 113.21Q664.98 117.72 665.79 121.90Q666.61 126.08 666.99 128.28Q667.28 126.08 668.19 121.85Q669.10 117.63 670.16 113.12L681.39 65.98L691.18 65.98L673.14 136.06M771.15 136.06L761.74 136.06L761.74 65.98L783.44 65.98Q789.87 65.98 794.67 68.52Q799.47 71.07 802.16 75.63Q804.85 80.19 804.85 86.33Q804.85 93.44 801.25 98.52Q797.65 103.61 791.70 105.72L805.81 136.06L795.34 136.06LNaN 106.78L771.15 106.78L771.15 136.06M771.15 74.43L771.15 98.33L783.44 98.33Q788.82 98.33 791.94 95.07Q795.06 91.80 795.06 86.43Q795.06 80.96 791.89 77.69Q788.72 74.43 783.44 74.43L771.15 74.43M824.91 136.06L815.22 136.06L833.36 65.98L845.94 65.98L863.98 136.06L854.29 136.06L849.87 117.82L829.33 117.82L824.91 136.06M836.34 88.92L831.25 109.95L847.95 109.95L842.96 89.02Q841.52 83.26 840.66 79.23Q839.79 75.20 839.60 73.76Q839.41 75.20 838.54 79.23Q837.68 83.26 836.34 88.92M894.32 137.02Q884.05 137.02 878.19 131.31Q872.34 125.60 872.34 115.71L881.84 115.71Q881.84 121.85 885.15 125.21Q888.46 128.57 894.32 128.57Q900.18 128.57 903.49 125.21Q906.80 121.85 906.80 115.80L906.80 65.98L916.30 65.98L916.30 115.80Q916.30 125.60 910.40 131.31Q904.50 137.02 894.32 137.02M940.11 136.06L930.42 136.06L948.56 65.98L961.14 65.98L979.18 136.06L969.49 136.06L965.07 117.82L944.53 117.82L940.11 136.06M951.54 88.92L946.45 109.95L963.15 109.95L958.16 89.02Q956.72 83.26 955.86 79.23Q954.99 75.20 954.80 73.76Q954.61 75.20 953.74 79.23Q952.88 83.26 951.54 88.92M1012.78 137.02Q1002.42 137.02 996.27 131.60Q990.13 126.17 990.13 116.67L999.63 116.67Q999.63 122.24 1003.18 125.40Q1006.74 128.57 1012.78 128.57Q1018.54 128.57 1021.95 125.36Q1025.36 122.14 1025.36 116.76Q1025.36 112.73 1023.15 109.71Q1020.94 106.68 1016.91 105.63L1006.54 102.84Q999.73 100.92 995.74 95.88Q991.76 90.84 991.76 83.93Q991.76 78.27 994.30 74Q996.85 69.72 1001.46 67.37Q1006.06 65.02 1012.11 65.02Q1018.26 65.02 1022.91 67.37Q1027.57 69.72 1030.16 73.95Q1032.75 78.17 1032.75 83.74L1023.34 83.74Q1023.34 79.13 1020.22 76.25Q1017.10 73.37 1012.11 73.37Q1007.12 73.37 1004.10 76.25Q1001.07 79.13 1001.07 83.74Q1001.07 87.48 1003.09 90.03Q1005.10 92.57 1008.75 93.63L1019.41 96.51Q1026.61 98.43 1030.64 103.85Q1034.67 109.28 1034.67 116.76Q1034.67 122.91 1031.98 127.47Q1029.30 132.03 1024.35 134.52Q1019.41 137.02 1012.78 137.02M1074.80 136.06L1065.30 136.06L1065.30 74.62L1046.29 74.62L1046.29 65.98L1093.71 65.98L1093.71 74.62L1074.80 74.62L1074.80 136.06M1116.85 136.06L1107.34 136.06L1107.34 65.98L1116.85 65.98L1116.85 95.55L1138.35 95.55L1138.35 65.98L1147.86 65.98L1147.86 136.06L1138.35 136.06L1138.35 104.19L1116.85 104.19L1116.85 136.06M1170.51 136.06L1160.82 136.06L1178.96 65.98L1191.54 65.98L1209.58 136.06L1199.89 136.06L1195.47 117.82L1174.93 117.82L1170.51 136.06M1181.94 88.92L1176.85 109.95L1193.55 109.95L1188.56 89.02Q1187.12 83.26 1186.26 79.23Q1185.39 75.20 1185.20 73.76Q1185.01 75.20 1184.14 79.23Q1183.28 83.26 1181.94 88.92M1231.18 136.06L1222.26 136.06L1222.26 65.98L1234.54 65.98L1255.47 125.12Q1255.18 122.62 1254.94 118.92Q1254.70 115.23 1254.56 111.24Q1254.42 107.26 1254.42 103.71L1254.42 65.98L1263.44 65.98L1263.44 136.06L1251.06 136.06L1230.32 76.92Q1230.51 79.42 1230.70 83.02Q1230.90 86.62 1231.04 90.56Q1231.18 94.49 1231.18 97.95L1231.18 136.06M1289.55 136.06L1280.14 136.06L1280.14 65.98L1301.84 65.98Q1308.27 65.98 1313.07 68.52Q1317.87 71.07 1320.56 75.63Q1323.25 80.19 1323.25 86.33Q1323.25 93.44 1319.65 98.52Q1316.05 103.61 1310.10 105.72L1324.21 136.06L1313.74 136.06L1300.40 106.78L1289.55 106.78L1289.55 136.06M1289.55 74.43L1289.55 98.33L1301.84 98.33Q1307.22 98.33 1310.34 95.07Q1313.46 91.80 1313.46 86.43Q1313.46 80.96 1310.29 77.69Q1307.12 74.43 1301.84 74.43L1289.55 74.43M1343.31 136.06L1333.62 136.06L1351.76 65.98L1364.34 65.98L1382.38 136.06L1372.69 136.06L1368.27 117.82L1347.73 117.82L1343.31 136.06M1354.74 88.92L1349.65 109.95L1366.35 109.95L1361.36 89.02Q1359.92 83.26 1359.06 79.23Q1358.19 75.20 1358 73.76Q1357.81 75.20 1356.94 79.23Q1356.08 83.26 1354.74 88.92M1412.72 137.02Q1402.45 137.02 1396.59 131.31Q1390.74 125.60 1390.74 115.71L1400.24 115.71Q1400.24 121.85 1403.55 125.21Q1406.86 128.57 1412.72 128.57Q1418.58 128.57 1421.89 125.21Q1425.20 121.85 1425.20 115.80L1425.20 65.98L1434.70 65.98L1434.70 115.80Q1434.70 125.60 1428.80 131.31Q1422.90 137.02 1412.72 137.02M1494.51 136.06L1453.71 136.06L1453.71 65.98L1494.51 65.98L1494.51 74.52L1463.12 74.52L1463.12 95.36L1491.15 95.36L1491.15 103.61L1463.12 103.61L1463.12 127.52L1494.51 127.52L1494.51 136.06M1529.26 136.06L1510.45 136.06L1510.45 65.98L1529.26 65.98Q1536.08 65.98 1541.12 68.62Q1546.16 71.26 1548.94 76.01Q1551.73 80.76 1551.73 87.20L1551.73 114.75Q1551.73 121.18 1548.94 125.98Q1546.16 130.78 1541.12 133.42Q1536.08 136.06 1529.26 136.06M1519.95 74.43L1519.95 127.61L1529.26 127.61Q1535.31 127.61 1538.77 124.16Q1542.22 120.70 1542.22 114.75L1542.22 87.20Q1542.22 81.24 1538.77 77.84Q1535.31 74.43 1529.26 74.43L1519.95 74.43M1588.40 137.02Q1578.51 137.02 1573.18 131.55Q1567.86 126.08 1567.86 116.67L1567.86 65.98L1577.36 65.98L1577.36 116.67Q1577.36 122.24 1580.10 125.40Q1582.83 128.57 1588.40 128.57Q1593.87 128.57 1596.70 125.40Q1599.54 122.24 1599.54 116.67L1599.54 65.98L1609.04 65.98L1609.04 116.67Q1609.04 126.17 1603.71 131.60Q1598.38 137.02 1588.40 137.02M1647.34 136.06L1625.74 136.06L1625.74 65.98L1646 65.98Q1655.70 65.98 1661.31 70.83Q1666.93 75.68 1666.93 84.12Q1666.93 89.60 1663.52 93.87Q1660.11 98.14 1654.74 99.10L1654.74 99.39Q1658.77 99.87 1661.89 102.27Q1665.01 104.67 1666.78 108.36Q1668.56 112.06 1668.56 116.48Q1668.56 125.50 1662.85 130.78Q1657.14 136.06 1647.34 136.06M1635.06 74.33L1635.06 95.55L1645.90 95.55Q1651.28 95.55 1654.35 92.72Q1657.42 89.88 1657.42 84.99Q1657.42 80 1654.35 77.16Q1651.28 74.33 1646 74.33L1635.06 74.33M1635.06 103.61L1635.06 127.71L1646.48 127.71Q1652.34 127.71 1655.70 124.59Q1659.06 121.47 1659.06 116.09Q1659.06 110.52 1655.70 107.07Q1652.34 103.61 1646.48 103.61L1635.06 103.61M1703.60 137.02Q1694 137.02 1688.43 131.45Q1682.86 125.88 1682.86 115.71L1682.86 86.24Q1682.86 76.16 1688.43 70.59Q1694 65.02 1703.60 65.02Q1713.20 65.02 1718.77 70.54Q1724.34 76.06 1724.34 86.24L1724.34 115.71Q1724.34 125.88 1718.77 131.45Q1713.20 137.02 1703.60 137.02M1703.60 128.57Q1708.98 128.57 1711.90 125.50Q1714.83 122.43 1714.83 116.67L1714.83 85.28Q1714.83 79.61 1711.95 76.54Q1709.07 73.47 1703.60 73.47Q1698.13 73.47 1695.25 76.54Q1692.37 79.61 1692.37 85.28L1692.37 116.67Q1692.37 122.43 1695.30 125.50Q1698.22 128.57 1703.60 128.57M1746.51 136.06L1736.82 136.06L1754.96 65.98L1767.54 65.98L1785.58 136.06L1775.89 136.06L1771.47 117.82L1750.93 117.82L1746.51 136.06M1757.94 88.92L1752.85 109.95L1769.55 109.95L1764.56 89.02Q1763.12 83.26 1762.26 79.23Q1761.39 75.20 1761.20 73.76Q1761.01 75.20 1760.14 79.23Q1759.28 83.26 1757.94 88.92M1807.95 136.06L1798.54 136.06L1798.54 65.98L1820.24 65.98Q1826.67 65.98 1831.47 68.52Q1836.27 71.07 1838.96 75.63Q1841.65 80.19 1841.65 86.33Q1841.65 93.44 1838.05 98.52Q1834.45 103.61 1828.50 105.72L1842.61 136.06L1832.14 136.06L1818.80 106.78L1807.95 106.78L1807.95 136.06M1807.95 74.43L1807.95 98.33L1820.24 98.33Q1825.62 98.33 1828.74 95.07Q1831.86 91.80 1831.86 86.43Q1831.86 80.96 1828.69 77.69Q1825.52 74.43 1820.24 74.43L1807.95 74.43M1874.86 136.06L1856.05 136.06L1856.05 65.98L1874.86 65.98Q1881.68 65.98 1886.72 68.62Q1891.76 71.26 1894.54 76.01Q1897.33 80.76 1897.33 87.20L1897.33 114.75Q1897.33 121.18 1894.54 125.98Q1891.76 130.78 1886.72 133.42Q1881.68 136.06 1874.86 136.06M1865.55 74.43L1865.55 127.61L1874.86 127.61Q1880.91 127.61 1884.37 124.16Q1887.82 120.70 1887.82 114.75L1887.82 87.20Q1887.82 81.24 1884.37 77.84Q1880.91 74.43 1874.86 74.43" fill="url(#paint2_linear_0_1)"/>
<g id="Group 1">
<rect id="Rectangle 1" x="26" y="168" width="12" height="184" rx="5" fill="url(#paint3_linear_0_1)" fill-opacity="0.9"/>
</g>
<g id="Group 1_2">
<rect id="Rectangle 2" x="26" y="38" width="12" height="119" rx="5" fill="url(#paint4_linear_0_1)" fill-opacity="0.9"/>
</g>
<ellipse id="Ellipse 1" cx="148.5" cy="573" rx="215.5" ry="214" fill="url(#paint5_linear_0_1)" fill-opacity="0.4"/>
<rect id="Rectangle 3" x="1229" y="48" width="300" height="300" rx="25" fill="#FFFBFB" fill-opacity="0.9"/>
<g id="placeholder-logo"><g transform="translate(1229,48) translate(0.0,60.0) scale(1.2000)"><g fill="#666666">
  <path d="m88.05,27.65c-3.15,4 -3.2,51.2 -0.05,54.35c2.75,2.75 71.7,3.15 74.45,0.45c2.85,-2.9 2.3,-53.85 -0.65,-55.9c-1.95,-1.35 -7.15,-1.55 -36.95,-1.55l-34.7,0l-2.1,2.65zm69.45,3.35c0.65,0 1,8.6 1,23.75l0,23.75l-33,0l-33,0l-0.25,-23c-0.15,-12.6 -0.1,-23.45 0.15,-24.1c0.35,-0.85 8.9,-1.05 32.25,-0.75c17.55,0.2 32.3,0.35 32.85,0.35z"/>
  <path d="m99.15,37.3c-6.85,7.35 4.25,17.35 11.4,10.25c1.35,-1.35 2.45,-3.65 2.45,-5.05c0,-6.45 -9.35,-9.95 -13.85,-5.2z"/>
  <path d="m135,42.5c-0.7,0.85 -5.25,5.15 -10.1,9.6l-8.85,8.1l-3.2,-3.2l-3.15,-3.15l-6.35,6.3c-5.55,5.5 -6.35,6.75 -6.35,10.05l0,3.8l28.5,0l28.5,0l0,-8.6l0,-8.55l-8.15,-7.7c-9.35,-8.85 -9.15,-8.7 -10.85,-6.65zm7.25,15.2c0.95,0.9 1.75,2.9 1.75,4.45c6.35,-5.05 4.75,-7.15 4.9,-11.55c0.95,0 0,0 0,0l-6.65,7.1z"/>
  <path d="m53.65,110.75c0.1,4.8 0.45,8.65 0.75,8.5c0.35,-0.15 1.3,-0.25 2.1,-0.25c1.1,0 1.5,-1.2 1.5,-4.75l0,-4.75l3.25,5c4.9,7.5 6.2,6.75 6.55,-3.75c0.25,-8.15 0.15,-8.75 -1.7,-8.75c-1.65,0 -2.05,0.8 -2.3,4.75l-0.3,4.75l-2.8,-4.75c-4.85,-8.25 -7.25,-6.9 -7.05,4z"/>
  <path d="m91,108.9c0,9.65 0.3,10.1 6.1,10.1c5.8,0 7.15,-2.65 1.65,-3.2l-3.25,-0.3l-0.3,-6.75c-0.25,-5.95 -0.55,-6.75 -2.25,-6.75c-1.75,0 -1.95,0.7 -1.95,6.9z"/>
  <path d="m151,102.45c0,0.25 1,2.15 2.25,4.2c1.2,2.1 2.45,5.8 2.75,8.25c0.65,5.9 4,6.95 4,1.25c0.05,-2.1 1.25,-5.85 2.95,-8.9l2.9,-5.25l-2.5,0c-1.8,0 -2.8,0.85 -3.75,3.1l-1.3,3.05l-1.25,-3.05c-1.1,-2.6 -6.05,-4.8 -6.05,-2.65z"/>
  <path d="m191,107.45c0,9.05 3.4,8.85 4.25,-0.2c0.45,-5 0.35,-5.25 -1.9,-5.25c-2.2,0 -2.35,0.4 -2.35,5.45z"/>
  <path d="m180.8,104.75c-1.3,5.35 0.65,13.6 3.45,14.35c2.3,0.6 2.75,0.4 2.75,-1.2c0,-1.05 -0.45,-1.9 -1,-1.9c-0.55,0 -1,-1.6 -1,-3.5c0,-1.95 0.45,-3.5 1,-3.5c0.55,0 1,-0.7 1,-1.5c0,-0.85 -0.45,-1.5 -1,-1.5c-0.55,0 -1,-0.7 -1,-1.5c0,-2.1 -3.65,-1.9 -4.2,0.25z"/>
  <path d="m71.55,106.55c-2.2,2.25 -2.05,9.7 0.3,11.8c4.5,4.1 10.15,0.75 10.15,-6.1c0,-4.85 -2,-7.25 -6,-7.25c-1.55,0 -3.55,0.7 -4.45,1.55zm6.25,5.8c0.25,3.05 0,3.65 -1.6,3.65c-2.3,0 -3.25,-2.65 -2.05,-5.85c1.25,-3.35 3.3,-2.1 3.65,2.2z"/>
  <path d="m105.75,106.1c-2.5,1.45 -2.45,9.95 0.1,12.25c4.3,3.9 10.15,0.35 10.15,-6.2c0,-6 -5.15,-9.05 -10.25,-6.05zm6.05,6.25c0.25,3.05 0,3.65 -1.6,3.65c-2.3,0 -3.25,-2.65 -2.05,-5.85c1.25,-3.35 3.3,-2.1 3.65,2.2z"/>
  <path d="m119.2,106.2c-3.8,3.8 -0.4,12.55 4.4,11.35c1.9,-0.45 2.45,-0.3 2.15,0.65c-0.25,0.7 -1.55,1.2 -2.85,1.1c-4.05,-0.3 -5.35,0.45 -3.85,2.25c0.85,1.05 2.6,1.45 5.35,1.25l4.1,-0.3l0.3,-8.75l0.3,-8.75l-4.35,0c-2.4,0 -4.9,0.55 -5.55,1.2zm6.6,4.45c0.4,2.85 -2.15,4.85 -3.75,2.95c-0.9,-1.1 -0.9,-2 -0.05,-3.6c1.35,-2.5 3.4,-2.15 3.8,0.65z"/>
  <path d="m133.55,106.55c-2.2,2.25 -2.05,9.7 0.3,11.8c4.5,4.1 10.15,0.75 10.15,-6.1c0,-4.85 -2,-7.25 -6,-7.25c-1.55,0 -3.55,0.7 -4.45,1.55zm6.25,5.8c0.25,3.05 0,3.65 -1.6,3.65c-2.3,0 -3.25,-2.65 -2.05,-5.85c1.25,-3.35 3.3,-2.1 3.65,2.2z"/>
  <path d="m167.65,106.85c-3.9,4.3 -0.75,13.15 4.7,13.15c2.4,0 5.65,-2.75 5.65,-4.85c0,-1.4 -2.65,-1.55 -3.5,-0.15c-0.95,1.55 -4.5,1.15 -4.5,-0.5c0,-1.1 1.1,-1.5 4,-1.5c3.15,0 4,-0.35 4,-1.8c0,-5.3 -6.85,-8.25 -10.35,-4.35z"/>
  <path d="m191,117.5c0,2.15 0.4,2.6 2.25,2.3c1.5,-0.2 2.25,-1 2.25,-2.3c0,-1.3 -0.75,-2.1 -2.25,-2.3c-1.85,-0.3 -2.25,0.15 -2.25,2.3z"/>
 </g></g></g>
</g>
<defs>
<linearGradient id="paint0_linear_0_1" x1="0" y1="198" x2="1584" y2="198" gradientUnits="userSpaceOnUse">
<stop stop-color="#3D052C"/>
<stop offset="1"/>
</linearGradient>
<linearGradient id="paint1_linear_0_1" x1="323" y1="-224" x2="323" y2="352" gradientUnits="userSpaceOnUse">
<stop stop-color="#28F6F2" stop-opacity="0.4"/>
<stop offset="1" stop-color="#17908E" stop-opacity="0.7"/>
</linearGradient>
<linearGradient id="paint2_linear_0_1" x1="148.5" y1="38" x2="148.5" y2="140" gradientUnits="userSpaceOnUse">
<stop stop-color="white"/>
<stop offset="1" stop-color="#999999"/>
</linearGradient>
<linearGradient id="paint3_linear_0_1" x1="38" y1="260" x2="26" y2="260" gradientUnits="userSpaceOnUse">
<stop stop-color="#D9D9D9"/>
<stop offset="1" stop-color="#737373"/>
</linearGradient>
<linearGradient id="paint4_linear_0_1" x1="38" y1="97.5" x2="26" y2="97.5" gradientUnits="userSpaceOnUse">
<stop stop-color="#D9D9D9"/>
<stop offset="1" stop-color="#737373"/>
</linearGradient>
<linearGradient id="paint5_linear_0_1" x1="27.5" y1="434.5" x2="148.5" y2="787" gradientUnits="userSpaceOnUse">
<stop stop-color="#2E21BC"/>
<stop offset="1" stop-color="#150F56"/>
</linearGradient>
<clipPath id="clip0_0_1">
<rect width="1584" height="396" fill="white"/>
</clipPath>
</defs>
</svg>
